<svg width="49" height="66" viewBox="0 0 49 66" fill="none" xmlns="http://www.w3.org/2000/svg">
<rect x="12.0366" y="11.0488" width="24.9268" height="23.7073" fill="white"/>
<path d="M41.2088 59.235L41.2143 42.7355L41.2154 39.6325L38.783 41.5592C34.7369 44.7641 29.6976 46.509 24.5025 46.5C30.5397 46.4993 36.3335 44.1338 40.6087 39.9172C44.8852 35.6993 47.2916 29.9741 47.2916 24C47.2916 21.0424 46.7009 18.1142 45.5538 15.3828C44.4068 12.6515 42.7261 10.1712 40.6087 8.08281C38.4914 5.99449 35.9789 4.33903 33.2152 3.20994C30.4515 2.08087 27.4901 1.5 24.4999 1.5C21.5097 1.5 18.5483 2.08087 15.7847 3.20994C13.0209 4.33903 10.5084 5.99449 8.39112 8.08281C6.27375 10.1712 4.59305 12.6515 3.44599 15.3828C2.29892 18.1142 1.70825 21.0424 1.70825 24C1.70825 29.9741 4.11461 35.6993 8.39112 39.9172C12.6669 44.1344 18.4618 46.5 24.4999 46.5L24.4975 46.5C19.3046 46.5085 14.2676 44.7647 10.2227 41.562L7.79001 39.6358L7.79158 42.7388L7.80071 60.7388L7.80071 60.7416C7.80238 61.4315 7.99589 62.1064 8.35832 62.6927C8.72063 63.2788 9.2372 63.7529 9.84969 64.066C10.462 64.379 11.1482 64.5197 11.8339 64.4743C12.5197 64.4289 13.1814 64.1988 13.747 63.8071L13.7484 63.8061L24.5031 56.339L35.26 63.8057C35.2602 63.8059 35.2605 63.8061 35.2607 63.8062C35.8265 64.1993 36.4889 64.4303 37.1756 64.4762C37.8626 64.5222 38.55 64.3813 39.1634 64.0675C39.7769 63.7537 40.294 63.2783 40.6562 62.6906C41.0186 62.1028 41.2112 61.4263 41.2113 60.7352L41.2115 59.235H41.2088ZM26.6283 20.1548L26.9798 20.8591L27.7591 20.97L32.4872 21.6431L29.082 24.9131L28.5061 25.4661L28.6432 26.2526L29.4542 30.9055L25.191 28.6927L24.4997 28.3339L23.8086 28.6928L19.5489 30.905L20.3597 26.2557L20.4969 25.4688L19.9206 24.9157L16.5106 21.6434L21.2408 20.97L22.0201 20.8591L22.3715 20.1548L24.4999 15.8896L26.6283 20.1548ZM33.5799 20.5937C33.5802 20.5935 33.5804 20.5932 33.5806 20.593L33.5806 20.5931L33.5799 20.5937ZM23.8543 14.5958C23.8539 14.5949 23.8534 14.5941 23.853 14.5932L24.4958 14.274L24.4983 14.2728L24.4999 14.2719L24.5077 14.2681L25.1965 13.926L24.5062 14.2704L24.5016 14.2728L24.4999 14.2736L24.4966 14.2753L23.8543 14.5958Z" fill="#FFE600" stroke="white" stroke-width="3"/>
</svg>
